<?xml version="1.0" encoding="UTF-8" standalone="no" ?>
<!DOCTYPE svg PUBLIC "-//W3C//DTD SVG 1.1//EN" "http://www.w3.org/Graphics/SVG/1.1/DTD/svg11.dtd">
<svg xmlns="http://www.w3.org/2000/svg" xmlns:xlink="http://www.w3.org/1999/xlink" version="1.1" width="500" height="500" viewBox="0 0 500 500" xml:space="preserve">
<desc>Created with Fabric.js 4.6.0</desc>
<defs>
</defs>
<g transform="matrix(0.44 0 0 0.44 250 354.25)" id="X1A8xUNqGrZsFO19q_7Jz"  >
<g style="" vector-effect="non-scaling-stroke"   >
		<g transform="matrix(0.1 0 0 -0.1 -332.65 0)" id="Od273i3DExLUbiDnqU32S"  >
<path style="stroke: none; stroke-width: 1; stroke-dasharray: none; stroke-linecap: butt; stroke-dashoffset: 0; stroke-linejoin: miter; stroke-miterlimit: 4; fill: rgb(0,0,0); fill-rule: nonzero; opacity: 1;" vector-effect="non-scaling-stroke"  transform=" translate(-1673.54, -110.01)" d="M 1492.9 2936.2 C 1384.8000000000002 2865 1313.6000000000001 2746.2999999999997 1239.7 2522.1 L 1184.3 2350.7 L 889 2337.5 L 593.6 2324.3 L 480.20000000000005 2205.6000000000004 C 192.7 1902.4 79.3 1203.5 103.1 -94 C 118.89999999999999 -1064.5 195.39999999999998 -1526 398.5 -1871.5 C 511.9 -2066.7 593.7 -2103.6 915.4 -2114.1 L 1197.6 -2124.6 L 1242.3999999999999 -2293.4 C 1302.9999999999998 -2517.6 1400.6 -2662.6 1537.7999999999997 -2728.6 C 1640.6999999999998 -2778.7 1688.0999999999997 -2781.2999999999997 2207.7 -2773.4 L 2764.2 -2765.5 L 2867 -2649.4 C 3067.4 -2425.2000000000003 3217.8 -1700 3241.5 -858.7 C 3246.8 -639.8000000000001 3246.8 -637.2 3159.8 -560.7 C 3043.8 -457.80000000000007 2914.5 -455.20000000000005 2811.7000000000003 -558 C 2748.4 -623.9 2735.2000000000003 -660.9 2722.0000000000005 -842.8 C 2682.4000000000005 -1325.4 2645.5000000000005 -1660.3 2627.1000000000004 -1707.8 C 2579.4 -1842.5 2495 -697.9 2495 109 C 2495 942.4 2579.4 2118.6 2626.9 1941.9 C 2645.4 1876 2690.2000000000003 1464.6000000000001 2721.8 1090.1000000000001 C 2735 916.0000000000001 2748.2000000000003 868.6000000000001 2808.8 802.6000000000001 C 2924.8 670.7000000000002 3138.5 699.7000000000002 3220.2000000000003 858.0000000000001 C 3251.9 923.9000000000001 3254.5000000000005 989.9000000000001 3233.4 1287.9 C 3162.2000000000003 2232 3027.7000000000003 2780.6000000000004 2822 2941.4 C 2756.1 2994.1 2721.8 2996.8 2165.3 2996.8 C 1601 2996.8 1577.3 2994.2 1492.9 2936.2 z M 2136.4 2319.1 C 1922.8000000000002 1382.8999999999999 1914.9 -974.8000000000002 2123.2000000000003 -1998.1 C 2157.5000000000005 -2172.1 2162.8 -2232.7999999999997 2139.0000000000005 -2240.7 C 2120.5000000000005 -2248.6 2030.9000000000005 -2251.2 1938.6000000000004 -2246 L 1772.5000000000005 -2238.1 L 1738.2000000000005 -2119.4 C 1579.9 -1578.8 1500.8 11.5 1572 1111.2 C 1611.6 1701.9 1709.1 2342.8 1772.4 2448.3 C 1780.3000000000002 2461.5 1872.6000000000001 2469.4 1978.1000000000001 2469.4 L 2170.6000000000004 2469.4 L 2136.4 2319.1 z M 1086.8 1646.6 C 997.0999999999999 768.3999999999999 997.0999999999999 -500.0999999999999 1086.8 -1415.2000000000003 L 1105.3 -1594.5000000000002 L 962.9 -1586.6000000000001 C 823.0999999999999 -1578.7 820.5 -1576.1000000000001 783.5999999999999 -1473.2 C 688.5 -1191.1 646.3 -814 630.5 -123 C 612 747.3 656.9 1280 786.1 1712.5 C 815.1 1810.1 815.1 1810.1 960.1 1810.1 L 1102.5 1810.1 L 1086.8 1646.6 z" stroke-linecap="round" />
</g>
		<g transform="matrix(0.1 0 0 -0.1 331.65 0.27)" id="00Kx-bwpC2Eii85y_2sNC"  >
<path style="stroke: none; stroke-width: 1; stroke-dasharray: none; stroke-linecap: butt; stroke-dashoffset: 0; stroke-linejoin: miter; stroke-miterlimit: 4; fill: rgb(0,0,0); fill-rule: nonzero; opacity: 1;" vector-effect="non-scaling-stroke"  transform=" translate(-8316.53, -107.25)" d="M 7184.1 2957.3 C 6965.200000000001 2836 6791.200000000001 2142.4 6751.6 1243.1000000000001 L 6733.1 873.9000000000001 L 6804.3 805.3000000000001 C 6886 723.5000000000001 6959.900000000001 705.1 7075.900000000001 734.1 C 7213.000000000001 768.4 7244.700000000001 847.5 7271.000000000001 1195.6 C 7297.400000000001 1551.6 7350.100000000001 2002.6 7363.300000000001 1986.8 C 7368.600000000001 1981.5 7395.000000000001 1818 7418.700000000001 1622.8 C 7455.6 1340.6 7463.500000000001 1045.1999999999998 7466.200000000001 148.5999999999999 C 7466.200000000001 -898.4000000000001 7450.400000000001 -1217.5 7381.800000000001 -1657.9 L 7363.300000000001 -1763.4 L 7344.9000000000015 -1671.1000000000001 C 7334.300000000001 -1621.0000000000002 7310.600000000001 -1412.7000000000003 7294.800000000001 -1209.6000000000001 C 7247.300000000001 -624.1000000000001 7247.300000000001 -626.8000000000002 7160.300000000001 -550.3000000000002 C 7046.9000000000015 -458.00000000000017 6917.700000000001 -460.6000000000002 6817.500000000001 -560.9000000000002 C 6746.300000000001 -632.1000000000003 6741.000000000001 -653.2000000000002 6741.000000000001 -840.4000000000002 C 6741.000000000001 -1109.4 6809.600000000001 -1734.4 6870.200000000001 -2027.2000000000003 C 6975.700000000001 -2525.7000000000003 7102.300000000001 -2731.4000000000005 7323.800000000001 -2765.6000000000004 C 7389.700000000001 -2776.1000000000004 7661.4000000000015 -2778.8 7927.700000000001 -2773.5000000000005 C 8394.5 -2765.6000000000004 8420.900000000001 -2763.0000000000005 8505.300000000001 -2702.3000000000006 C 8600.2 -2633.7000000000007 8729.500000000002 -2391.100000000001 8758.500000000002 -2225.0000000000005 L 8774.300000000001 -2124.8000000000006 L 9059.2 -2114.3000000000006 C 9378.300000000001 -2103.8000000000006 9433.7 -2080.0000000000005 9562.900000000001 -1903.3000000000006 C 9810.800000000001 -1563.1000000000006 9947.900000000001 -460.7000000000007 9884.600000000002 633.6999999999994 C 9837.100000000002 1395.8999999999994 9755.400000000001 1804.5999999999995 9589.200000000003 2092.0999999999995 C 9470.500000000002 2295.1999999999994 9417.800000000003 2321.4999999999995 9080.200000000003 2337.3999999999996 L 8792.700000000003 2350.5999999999995 L 8726.800000000003 2558.8999999999996 C 8679.300000000003 2709.2 8634.500000000004 2796.2999999999997 8560.700000000003 2875.3999999999996 L 8457.800000000003 2983.4999999999995 L 7856.500000000003 2988.7999999999997 C 7363.4 2994.2 7242.1 2988.9 7184.1 2957.3 z M 8239 2371.8 C 8281.2 2226.8 8339.2 1870.7000000000003 8381.4 1506.8000000000002 C 8426.199999999999 1087.5000000000002 8428.9 -856.1999999999998 8381.4 -1262.2999999999997 C 8341.8 -1620.9999999999998 8273.3 -2024.4999999999998 8233.699999999999 -2145.7999999999997 L 8204.699999999999 -2238.1 L 8009.499999999999 -2246 L 7816.999999999999 -2253.9 L 7832.799999999999 -2166.9 C 7961.999999999999 -1436.4 8006.799999999999 -866.7 8006.799999999999 111.69999999999982 C 8006.799999999999 1079.6 7948.799999999999 1828.6 7832.799999999999 2385 L 7816.999999999999 2469.4 L 8012.199999999999 2469.4 L 8210 2469.4 L 8239 2371.8 z M 9206.9 1672.9 C 9275.5 1440.8000000000002 9325.6 1084.8000000000002 9354.6 586.4000000000001 C 9402.1 -141.4999999999999 9325.6 -1109.3999999999999 9196.4 -1460.1 C 9154.199999999999 -1578.8 9151.6 -1578.8 9011.8 -1586.6999999999998 L 8872 -1594.6 L 8887.8 -1468 C 8980.099999999999 -742.7 8980.099999999999 992.5999999999999 8887.8 1686.1 L 8872 1810.1 L 9019.7 1810.1 L 9164.7 1810.1 L 9206.9 1672.9 z" stroke-linecap="round" />
</g>
		<g transform="matrix(0.1 0 0 -0.1 -1.28 1.26)" id="ke8Vwe0FDiYOOXeByhWZO"  >
<path style="stroke: none; stroke-width: 1; stroke-dasharray: none; stroke-linecap: butt; stroke-dashoffset: 0; stroke-linejoin: miter; stroke-miterlimit: 4; fill: rgb(0,0,0); fill-rule: nonzero; opacity: 1;" vector-effect="non-scaling-stroke"  transform=" translate(-4987.2, -97.38)" d="M 2782.5 362.2 C 2687.6 267.29999999999995 2679.6 248.79999999999998 2679.6 109 C 2679.6 -30.799999999999983 2687.5 -49.19999999999999 2779.7999999999997 -141.5 C 2861.6 -225.9 2903.7999999999997 -244.4 3022.3999999999996 -260.2 C 3101.4999999999995 -268.09999999999997 4035.0999999999995 -273.4 5092.7 -268.09999999999997 C 6962.5 -260.2 7020.5 -257.59999999999997 7107.6 -207.49999999999997 C 7210.400000000001 -146.89999999999998 7294.8 -4.399999999999977 7294.8 103.70000000000002 C 7294.8 219.70000000000002 7221 351.6 7123.400000000001 412.30000000000007 C 7039.000000000001 465.00000000000006 6996.8 465.00000000000006 4960.800000000001 465.00000000000006 L 2885.4 465.00000000000006 L 2782.5 362.2 z" stroke-linecap="round" />
</g>
</g>
</g>
</svg>